<!DOCTYPE svg PUBLIC "-//W3C//DTD SVG 1.1//EN" "http://www.w3.org/Graphics/SVG/1.1/DTD/svg11.dtd">
<!-- Uploaded to: SVG Repo, www.svgrepo.com, Transformed by: SVG Repo Mixer Tools -->
<svg fill="#ffffff" width="800px" height="800px" viewBox="0 0 16 16" xmlns="http://www.w3.org/2000/svg" stroke="#ffffff">
<g id="SVGRepo_bgCarrier" stroke-width="0"/>
<g id="SVGRepo_tracerCarrier" stroke-linecap="round" stroke-linejoin="round"/>
<g id="SVGRepo_iconCarrier">
<path d="M16 6.28a1.23 1.23 0 0 0-.62-1.07l-6.74-4a1.27 1.27 0 0 0-1.28 0l-6.75 4a1.25 1.25 0 0 0 0 2.15l1.92 1.12v2.81a1.28 1.28 0 0 0 .62 1.09l4.25 2.45a1.28 1.28 0 0 0 1.24 0l4.25-2.45a1.28 1.28 0 0 0 .62-1.09V8.45l1.24-.73v2.72H16V6.28zm-3.73 5L8 13.74l-4.22-2.45V9.22l3.58 2.13a1.29 1.29 0 0 0 1.28 0l3.62-2.16zM8 10.27l-6.75-4L8 2.26l6.75 4z"/>
</g>
</svg>